<?xml version="1.0" encoding="UTF-8"?>
<!DOCTYPE svg PUBLIC "-//W3C//DTD SVG 1.1//EN" "http://www.w3.org/Graphics/SVG/1.1/DTD/svg11.dtd">
<svg version="1.1" xmlns="http://www.w3.org/2000/svg" xmlns:xlink="http://www.w3.org/1999/xlink" x="0" y="0" width="303.661" height="248.85" viewBox="0, 0, 674.801, 553">
  <g id="Layer_1" transform="translate(-18.024, 195.519)">
    <g>
      <g>
        <g>
          <path d="M139.956,22.023 L144.661,16.469 Q148.912,24.546 157.767,21.579 Q162.072,20.137 164.03,16.874 Q165.988,13.611 164.755,9.93 Q163.068,4.895 155.328,1.966 L149.986,-0.03 Q143.521,-2.498 141.011,-4.341 Q138.501,-6.185 137.488,-9.206 Q135.581,-14.9 138.885,-20.14 Q142.189,-25.379 149.134,-27.706 Q154.655,-29.556 160.47,-28.569 L160.003,-23.276 L159.786,-20.924 Q159.627,-18.863 158.586,-18.514 Q158.134,-18.363 157.532,-18.547 Q157.517,-20.55 157.157,-21.627 Q156.412,-23.849 153.464,-24.522 Q150.515,-25.195 146.904,-23.985 Q138.709,-21.24 140.978,-14.469 Q141.792,-12.038 144.365,-10.409 Q146.939,-8.78 154.274,-6.023 L158.573,-4.374 Q166.742,-1.318 168.661,4.412 Q170.778,10.732 166.856,16.719 Q162.933,22.706 154.947,25.382 Q145.224,28.64 139.956,22.023 z" fill="#34D3E0"/>
          <path d="M199.594,-2.78 Q196.955,4.74 192.998,10.013 Q189.042,15.285 185.459,16.043 Q180.55,17.081 178.876,9.163 Q176.572,-1.729 182.033,-11.212 Q187.495,-20.696 197.276,-22.765 Q201.002,-23.553 203.815,-23.175 Q203.772,-22.492 203.766,-22.341 L203.738,-20.351 Q203.725,-18.29 203.757,-17.96 L204.814,-1.639 L204.977,0.723 Q205.231,4.225 205.473,5.371 Q205.799,6.912 206.695,6.723 Q209.704,6.086 211.433,-1.317 Q212.521,-0.948 212.643,-0.375 Q212.908,0.879 210.63,5.329 Q207.529,11.375 203.946,12.133 Q201.331,12.686 200.588,9.175 Q200.361,8.1 200.21,6.148 L199.962,3.206 L199.761,-0.046 z M198.628,-17.436 Q194.981,-18.574 191.649,-17.869 Q186.633,-16.808 184.525,-9.961 Q182.417,-3.115 184.335,5.95 Q185.32,10.607 188.079,10.024 Q191.267,9.349 194.751,3.522 Q199.455,-4.323 198.873,-13.445 z" fill="#34D3E0"/>
          <path d="M231.193,-4.116 Q232.319,-3.766 232.438,-2.969 Q232.828,-0.362 229.508,4.059 Q226.188,8.48 223.544,8.875 Q220.538,9.324 219.889,4.978 Q219.494,2.334 219.408,-0.467 L219.325,-3.75 L218.348,-29.375 Q217.931,-41.088 223.388,-49.79 Q228.846,-58.492 237.466,-59.78 Q239.566,-60.094 241.069,-59.948 L236.711,-53.928 Q234.922,-54.253 232.64,-53.912 Q227.207,-53.101 225.08,-48.877 Q222.952,-44.652 223.302,-35.374 L224.468,-4.519 Q224.595,-0.946 224.822,0.575 Q225.309,3.835 226.432,3.667 Q227.772,3.467 229.261,1.041 Q230.75,-1.384 231.193,-4.116 z" fill="#34D3E0"/>
          <path d="M253.588,-3.062 Q262.207,-18.362 261.603,-23.932 Q261.378,-26.008 259.136,-26.98 L263.182,-32.134 Q265.986,-31.075 266.305,-28.126 Q266.7,-24.485 260.886,-13.209 Q259.602,-10.786 259.093,-9.7 L258.353,-8.036 L256.966,-5.196 Q255.819,-2.862 254.586,0.034 L250.058,5.498 Q247.404,-6.076 243.239,-15.275 Q239.074,-24.475 236.599,-24.206 Q233.832,-23.906 233.335,-18.29 Q232.24,-18.54 232.149,-19.377 Q231.849,-22.144 233.887,-25.607 Q235.924,-29.069 238.024,-29.407 Q245.881,-30.664 253.588,-3.062 z" fill="#34D3E0"/>
          <path d="M293.367,-13.558 Q289.638,-6.514 284.94,-1.889 Q280.243,2.736 276.587,2.952 Q271.579,3.248 271.101,-4.831 Q270.444,-15.945 277.257,-24.51 Q284.069,-33.075 294.049,-33.665 Q297.851,-33.889 300.576,-33.097 Q300.432,-32.428 300.404,-32.279 L300.08,-30.316 Q299.76,-28.279 299.743,-27.948 L298.359,-11.652 L298.168,-9.292 Q297.898,-5.791 297.967,-4.622 Q298.06,-3.05 298.974,-3.104 Q302.045,-3.285 304.855,-10.348 Q305.877,-9.821 305.912,-9.237 Q305.987,-7.957 303.072,-3.896 Q299.106,1.621 295.451,1.837 Q292.782,1.995 292.57,-1.588 Q292.505,-2.685 292.647,-4.637 L292.839,-7.584 L293.125,-10.829 z M294.593,-28.194 Q291.156,-29.862 287.756,-29.661 Q282.638,-29.358 279.535,-22.902 Q276.431,-16.445 276.978,-7.196 Q277.259,-2.444 280.073,-2.61 Q283.327,-2.803 287.639,-8.047 Q293.459,-15.104 294.241,-24.211 z" fill="#34D3E0"/>
          <path d="M333.641,-29.095 Q330.976,-30.921 326.985,-30.86 Q321.968,-30.782 318.606,-24.43 Q315.243,-18.079 315.385,-8.888 Q315.459,-4.128 318.278,-4.171 Q321.501,-4.221 326.074,-9.273 Q332.411,-16.293 333.228,-25.06 z M339.833,-33.732 Q339.66,-33.07 339.625,-32.923 L339.253,-30.976 Q338.81,-28.845 338.776,-28.625 L337.519,-15.201 Q337.205,-11.826 336.933,-3.361 Q336.585,7.229 335.162,12.342 Q333.74,17.455 329.993,21.505 Q321.421,30.831 311.571,30.983 Q306.811,31.057 303.612,27.883 Q300.413,24.71 300.338,19.877 Q300.186,10.027 312.084,0.246 Q309.49,-1.728 309.411,-6.817 Q309.24,-17.876 316.4,-26.154 Q323.56,-34.432 333.483,-34.586 Q337.694,-34.651 339.833,-33.732 z M332.221,-14.386 Q322.568,0.853 314.549,0.977 Q314.22,0.983 313.376,0.922 Q305.014,9.622 305.118,16.323 Q305.189,20.9 308.477,23.944 Q311.766,26.988 316.562,26.914 Q323.959,26.799 327.813,20.22 Q330.737,15.157 331.617,-3.755 Q331.945,-10.902 332.221,-14.386 z" fill="#34D3E0"/>
          <path d="M367.427,-11.174 Q368.328,-10.53 368.308,-9.688 Q368.282,-8.553 365.874,-5.862 Q359.445,1.241 353.331,1.099 Q349.596,1.012 347.249,-2.01 Q344.902,-5.032 345.01,-9.645 Q345.204,-17.992 351.719,-26.394 Q358.234,-34.795 364.421,-34.651 Q368.888,-34.547 368.776,-29.751 Q368.65,-24.369 363.314,-19.365 Q357.977,-14.361 350.425,-12.522 Q350.951,-3.682 357.175,-3.537 Q363.326,-3.394 367.427,-11.174 z M350.675,-16.986 Q351.729,-16.595 352.607,-16.574 Q357.147,-16.468 360.617,-19.171 Q364.087,-21.875 364.174,-25.609 Q364.273,-29.892 359.917,-29.994 Q356.768,-30.067 354.136,-26.374 Q351.504,-22.681 350.675,-16.986 z" fill="#34D3E0"/>
          <path d="M406.378,-25.712 L400.111,-20.776 Q399.004,-24.824 399.365,-28.468 Q400.261,-37.506 408.645,-42.268 Q415.668,-46.282 431.556,-44.707 Q434.253,-44.44 436.283,-44.128 Q441.896,-43.204 442.041,-43.189 L444.592,-42.936 Q441.309,-38.772 439.965,-25.215 L439.813,-23.317 L439.544,-19.112 Q438.796,-11.568 439.87,-3.476 Q440.296,-0.342 440.901,0.601 Q441.507,1.544 443.22,1.714 Q445.078,1.898 447.566,0.931 Q447.76,1.575 447.72,1.976 Q447.63,2.887 446.144,3.402 L444.348,4.071 L434.996,7.081 Q432.922,-2.435 433.303,-12.591 L430.342,-10.934 L418.098,-12.148 Q413.899,-3.953 407.707,-0.887 L415.215,0.225 L410.867,3.99 L396.377,2.038 L401.658,-1.855 L405.28,-1.275 Q407.939,-2.851 410.015,-5.976 Q412.091,-9.1 416.493,-18.232 L417.886,-21.148 Q422.146,-29.963 425.584,-33.836 Q429.022,-37.709 434.501,-39.889 Q428.884,-41.513 422.543,-42.141 Q406.4,-43.742 405.319,-32.846 Q404.951,-29.129 406.378,-25.712 z M433.429,-14.602 Q433.548,-20.994 433.938,-24.93 Q434.137,-26.934 434.336,-28.202 L435.047,-32.401 Q435.768,-36.709 436.506,-38.954 Q428.93,-35.289 423.001,-22.261 Q421.303,-18.491 421.026,-17.93 L419.982,-15.936 z" fill="#34D3E0"/>
          <path d="M477.861,-2.403 Q472.679,3.222 466.772,6.757 Q460.865,10.291 457.615,9.743 Q454.04,9.14 454.844,4.373 Q455.142,2.604 456.294,-1.361 L459.592,-12.987 Q459.67,-13.233 460.125,-15.051 L460.738,-17.361 Q461.023,-18.39 461.163,-19.221 Q461.516,-21.315 460.325,-21.516 Q457.58,-21.979 453.361,-16.34 Q452.766,-16.997 452.87,-17.611 Q453.247,-19.85 457.865,-22.897 Q462.483,-25.943 464.83,-25.547 Q467.827,-25.042 467.133,-20.925 Q466.968,-19.95 466.605,-18.674 L465.811,-15.949 L464.974,-12.97 L462.076,-2.837 Q461.343,-0.25 460.886,2.459 Q460.466,4.95 462.307,5.261 Q466.388,5.949 472.667,0.1 Q478.945,-5.748 480.993,-12.162 L483.664,-20.513 L489.849,-21.513 Q488.132,-17.494 487.072,-14.294 L482.359,0.435 Q481.947,1.777 481.68,2.698 L481.093,4.641 Q480.565,6.446 480.437,7.205 Q480.175,8.757 481.042,8.904 Q484.112,9.421 488.434,3.168 Q489.312,3.911 489.215,4.488 Q489.001,5.752 485.214,9.05 Q480.112,13.538 476.501,12.928 Q473.865,12.484 474.462,8.945 Q474.65,7.825 475.22,5.99 L476.104,3.168 Q476.825,0.876 477.074,0.064 z" fill="#34D3E0"/>
          <path d="M530.628,-5.73 L509.998,-11.506 L503.871,3.587 Q502.237,7.656 501.675,9.666 Q500.559,13.651 503.274,14.411 Q506.201,15.23 510.683,11.313 Q511.024,12.131 510.876,12.66 Q510.323,14.635 506.079,16.413 Q501.836,18.191 499.332,17.49 Q494.324,16.088 496.121,9.67 Q496.783,7.307 498.863,2.185 L504.955,-12.918 L497.514,-15.001 L502.786,-17.937 L506.559,-16.88 L509.096,-23.091 L514.764,-23.368 L511.602,-15.468 L537.663,-8.172 Q540.353,-8.408 542.222,-7.884 Q550.333,-5.613 547.39,4.896 Q545.021,13.359 536.617,19.468 Q528.214,25.577 521.549,23.711 Q513.508,21.459 516.451,10.95 Q519.363,0.547 530.628,-5.73 z M526.816,20.926 Q530.871,22.061 534.868,18.313 Q538.865,14.564 540.751,7.828 Q543.831,-3.174 536.955,-5.1 Q532.934,-6.225 528.95,-2.454 Q524.966,1.317 523.09,8.018 Q520.01,19.02 526.816,20.926 z" fill="#34D3E0"/>
          <path d="M542.872,28.469 L549.186,26.797 Q550.527,30.747 554.46,32.537 Q559.259,34.722 561.368,30.089 Q562.537,27.523 560.231,20.92 L559.226,18.089 Q557.048,11.826 558.277,9.126 Q560.037,5.26 564.585,4.152 Q569.133,3.044 574.033,5.274 Q576.699,6.488 579.411,8.929 L573.727,10.808 Q572.059,7.755 568.959,6.344 Q565.326,4.69 563.945,7.723 Q562.959,9.89 565.08,15.925 L566.145,19.066 Q568.56,25.959 567.224,28.892 Q565.313,33.092 559.816,34.472 Q554.318,35.853 549.052,33.455 Q545.319,31.756 542.872,28.469 z" fill="#34D3E0"/>
        </g>
        <g>
          <path d="M570.894,139.939 L566.189,145.493 Q561.938,137.417 553.083,140.383 Q548.778,141.826 546.82,145.089 Q544.862,148.351 546.095,152.032 Q547.782,157.067 555.522,159.997 L560.864,161.992 Q567.329,164.461 569.839,166.304 Q572.349,168.147 573.362,171.168 Q575.269,176.863 571.965,182.102 Q568.661,187.342 561.716,189.669 Q556.195,191.518 550.38,190.531 L550.847,185.238 L551.064,182.887 Q551.223,180.825 552.264,180.476 Q552.716,180.325 553.318,180.51 Q553.333,182.513 553.693,183.589 Q554.438,185.812 557.386,186.485 Q560.335,187.158 563.946,185.948 Q572.141,183.202 569.872,176.431 Q569.058,174 566.484,172.372 Q563.911,170.743 556.576,167.986 L552.277,166.336 Q544.108,163.28 542.189,157.551 Q540.072,151.231 543.994,145.243 Q547.917,139.256 555.903,136.58 Q565.626,133.323 570.894,139.939 z" fill="#34D3E0"/>
          <path d="M511.256,164.743 Q513.895,157.222 517.852,151.95 Q521.808,146.677 525.391,145.92 Q530.3,144.881 531.974,152.799 Q534.278,163.691 528.817,173.175 Q523.355,182.659 513.574,184.727 Q509.848,185.516 507.035,185.137 Q507.078,184.455 507.084,184.304 L507.112,182.314 Q507.125,180.252 507.093,179.922 L506.036,163.601 L505.873,161.24 Q505.619,157.738 505.377,156.591 Q505.051,155.051 504.155,155.24 Q501.146,155.877 499.417,163.279 Q498.329,162.911 498.207,162.337 Q497.942,161.083 500.22,156.634 Q503.321,150.588 506.904,149.83 Q509.519,149.277 510.262,152.788 Q510.489,153.863 510.64,155.815 L510.888,158.757 L511.089,162.008 z M512.222,179.399 Q515.869,180.536 519.201,179.832 Q524.217,178.771 526.325,171.924 Q528.433,165.077 526.515,156.013 Q525.53,151.355 522.771,151.939 Q519.583,152.613 516.099,158.441 Q511.395,166.286 511.977,175.408 z" fill="#34D3E0"/>
          <path d="M479.657,166.079 Q478.531,165.729 478.412,164.932 Q478.022,162.324 481.342,157.903 Q484.662,153.482 487.306,153.087 Q490.312,152.638 490.961,156.984 Q491.356,159.628 491.442,162.43 L491.525,165.713 L492.502,191.338 Q492.919,203.05 487.462,211.753 Q482.004,220.455 473.384,221.743 Q471.284,222.057 469.781,221.911 L474.139,215.891 Q475.928,216.216 478.21,215.875 Q483.643,215.063 485.77,210.839 Q487.898,206.615 487.548,197.336 L486.382,166.481 Q486.255,162.908 486.028,161.387 Q485.541,158.128 484.418,158.295 Q483.078,158.495 481.589,160.921 Q480.1,163.347 479.657,166.079 z" fill="#34D3E0"/>
          <path d="M457.262,165.025 Q448.643,180.325 449.247,185.895 Q449.472,187.97 451.714,188.943 L447.668,194.096 Q444.864,193.037 444.545,190.088 Q444.15,186.447 449.964,175.172 Q451.248,172.749 451.757,171.662 L452.497,169.998 L453.884,167.159 Q455.031,164.825 456.264,161.928 L460.792,156.465 Q463.446,168.038 467.611,177.238 Q471.776,186.437 474.251,186.169 Q477.018,185.869 477.515,180.253 Q478.61,180.503 478.701,181.34 Q479.001,184.107 476.963,187.569 Q474.926,191.032 472.826,191.37 Q464.969,192.626 457.262,165.025 z" fill="#34D3E0"/>
          <path d="M417.483,175.52 Q421.212,168.476 425.91,163.852 Q430.607,159.227 434.263,159.011 Q439.271,158.715 439.749,166.794 Q440.406,177.907 433.593,186.472 Q426.781,195.037 416.801,195.627 Q412.999,195.852 410.274,195.059 Q410.418,194.39 410.446,194.242 L410.77,192.279 Q411.09,190.242 411.107,189.911 L412.491,173.614 L412.682,171.255 Q412.952,167.754 412.883,166.584 Q412.79,165.012 411.876,165.066 Q408.805,165.248 405.995,172.311 Q404.973,171.784 404.938,171.199 Q404.863,169.92 407.778,165.859 Q411.744,160.342 415.399,160.126 Q418.068,159.968 418.28,163.55 Q418.345,164.647 418.203,166.6 L418.011,169.546 L417.725,172.791 z M416.257,190.157 Q419.694,191.824 423.094,191.623 Q428.212,191.321 431.315,184.864 Q434.419,178.408 433.872,169.159 Q433.591,164.406 430.776,164.573 Q427.523,164.765 423.211,170.009 Q417.391,177.066 416.609,186.174 z" fill="#34D3E0"/>
          <path d="M377.209,191.057 Q379.874,192.884 383.865,192.822 Q388.882,192.744 392.244,186.393 Q395.607,180.041 395.465,170.85 Q395.391,166.09 392.572,166.134 Q389.349,166.184 384.776,171.236 Q378.439,178.256 377.622,187.022 z M371.017,195.695 Q371.19,195.033 371.225,194.886 L371.597,192.939 Q372.04,190.808 372.074,190.587 L373.331,177.163 Q373.645,173.789 373.917,165.324 Q374.265,154.734 375.688,149.621 Q377.11,144.508 380.857,140.458 Q389.429,131.132 399.279,130.979 Q404.039,130.906 407.238,134.079 Q410.437,137.253 410.512,142.086 Q410.664,151.936 398.766,161.716 Q401.36,163.69 401.439,168.78 Q401.61,179.838 394.45,188.117 Q387.29,196.395 377.367,196.549 Q373.156,196.614 371.017,195.695 z M378.629,176.348 Q388.282,161.109 396.301,160.985 Q396.63,160.98 397.474,161.04 Q405.836,152.34 405.732,145.639 Q405.661,141.062 402.373,138.018 Q399.084,134.975 394.288,135.049 Q386.891,135.163 383.037,141.742 Q380.113,146.805 379.233,165.718 Q378.905,172.865 378.629,176.348 z" fill="#34D3E0"/>
          <path d="M343.423,173.136 Q342.522,172.492 342.542,171.65 Q342.568,170.515 344.976,167.824 Q351.405,160.721 357.519,160.864 Q361.254,160.951 363.601,163.973 Q365.948,166.995 365.84,171.608 Q365.646,179.955 359.131,188.356 Q352.616,196.758 346.429,196.614 Q341.962,196.509 342.074,191.713 Q342.2,186.331 347.536,181.328 Q352.873,176.324 360.425,174.485 Q359.899,165.645 353.675,165.5 Q347.524,165.356 343.423,173.136 z M360.175,178.948 Q359.121,178.557 358.243,178.537 Q353.703,178.431 350.233,181.134 Q346.763,183.837 346.676,187.571 Q346.577,191.855 350.933,191.956 Q354.082,192.03 356.714,188.337 Q359.346,184.643 360.175,178.948 z" fill="#34D3E0"/>
          <path d="M304.472,187.674 L310.739,182.739 Q311.846,186.786 311.485,190.431 Q310.589,199.468 302.205,204.231 Q295.182,208.245 279.294,206.67 Q276.597,206.402 274.567,206.091 Q268.954,205.166 268.809,205.152 L266.258,204.899 Q269.541,200.735 270.885,187.178 L271.037,185.279 L271.306,181.074 Q272.054,173.53 270.98,165.438 Q270.554,162.305 269.949,161.361 Q269.343,160.418 267.63,160.248 Q265.772,160.064 263.284,161.032 Q263.09,160.387 263.13,159.986 Q263.22,159.075 264.706,158.56 L266.502,157.892 L275.854,154.881 Q277.928,164.397 277.547,174.553 L280.508,172.897 L292.752,174.111 Q296.951,165.916 303.143,162.849 L295.635,161.737 L299.983,157.973 L314.473,159.925 L309.192,163.817 L305.57,163.237 Q302.911,164.814 300.835,167.938 Q298.759,171.063 294.357,180.195 L292.964,183.111 Q288.704,191.926 285.266,195.798 Q281.827,199.671 276.349,201.851 Q281.966,203.475 288.306,204.104 Q304.45,205.705 305.531,194.808 Q305.899,191.091 304.472,187.674 z M277.421,176.565 Q277.302,182.957 276.912,186.892 Q276.713,188.897 276.514,190.165 L275.803,194.363 Q275.082,198.671 274.344,200.916 Q281.92,197.251 287.849,184.223 Q289.547,180.454 289.824,179.892 L290.868,177.898 z" fill="#34D3E0"/>
          <path d="M232.989,164.366 Q238.171,158.741 244.078,155.206 Q249.985,151.671 253.235,152.22 Q256.81,152.823 256.006,157.589 Q255.708,159.359 254.556,163.324 L251.258,174.949 Q251.18,175.196 250.725,177.013 L250.112,179.324 Q249.827,180.353 249.687,181.183 Q249.334,183.278 250.525,183.479 Q253.27,183.942 257.489,178.303 Q258.084,178.96 257.98,179.574 Q257.603,181.813 252.985,184.859 Q248.367,187.906 246.02,187.51 Q243.023,187.004 243.717,182.887 Q243.882,181.912 244.245,180.637 L245.039,177.911 L245.876,174.933 L248.774,164.8 Q249.507,162.212 249.964,159.504 Q250.384,157.012 248.543,156.702 Q244.462,156.013 238.183,161.862 Q231.905,167.711 229.857,174.125 L227.186,182.476 L221.001,183.475 Q222.718,179.457 223.778,176.256 L228.491,161.527 Q228.903,160.185 229.17,159.265 L229.757,157.321 Q230.285,155.516 230.413,154.758 Q230.675,153.205 229.808,153.059 Q226.738,152.541 222.416,158.794 Q221.538,158.052 221.635,157.474 Q221.849,156.21 225.636,152.912 Q230.738,148.425 234.349,149.034 Q236.985,149.479 236.388,153.018 Q236.199,154.137 235.63,155.972 L234.746,158.794 Q234.025,161.086 233.776,161.899 z" fill="#34D3E0"/>
          <path d="M180.222,167.693 L200.852,173.469 L206.979,158.375 Q208.613,154.307 209.175,152.297 Q210.291,148.312 207.576,147.552 Q204.649,146.732 200.167,150.649 Q199.826,149.831 199.974,149.302 Q200.527,147.327 204.771,145.549 Q209.014,143.771 211.518,144.472 Q216.526,145.874 214.729,152.293 Q214.067,154.655 211.987,159.777 L205.895,174.88 L213.336,176.964 L208.064,179.899 L204.291,178.843 L201.753,185.054 L196.086,185.33 L199.248,177.431 L173.187,170.134 Q170.497,170.37 168.628,169.847 Q160.517,167.576 163.46,157.067 Q165.829,148.603 174.233,142.495 Q182.636,136.386 189.301,138.252 Q197.342,140.503 194.399,151.012 Q191.487,161.415 180.222,167.693 z M184.034,141.037 Q179.979,139.901 175.982,143.65 Q171.985,147.399 170.099,154.134 Q167.019,165.137 173.895,167.062 Q177.916,168.188 181.9,164.416 Q185.884,160.645 187.76,153.945 Q190.84,142.942 184.034,141.037 z" fill="#34D3E0"/>
          <path d="M167.978,133.493 L161.664,135.166 Q160.323,131.216 156.39,129.425 Q151.591,127.241 149.482,131.873 Q148.313,134.44 150.619,141.042 L151.624,143.874 Q153.802,150.136 152.573,152.836 Q150.813,156.702 146.265,157.811 Q141.717,158.919 136.817,156.688 Q134.151,155.474 131.439,153.033 L137.123,151.154 Q138.791,154.207 141.891,155.618 Q145.524,157.272 146.905,154.239 Q147.891,152.073 145.77,146.037 L144.705,142.897 Q142.29,136.003 143.626,133.07 Q145.537,128.871 151.034,127.49 Q156.532,126.11 161.798,128.507 Q165.531,130.207 167.978,133.493 z" fill="#34D3E0"/>
        </g>
      </g>
    </g>
  </g>
</svg>
