<?xml version="1.0" encoding="UTF-8"?>
<!DOCTYPE svg PUBLIC "-//W3C//DTD SVG 1.1//EN" "http://www.w3.org/Graphics/SVG/1.1/DTD/svg11.dtd">
<svg version="1.1" xmlns="http://www.w3.org/2000/svg" xmlns:xlink="http://www.w3.org/1999/xlink" x="0" y="0" width="394.177" height="242.638" viewBox="0, 0, 394.177, 242.638">
  <g id="Layer_1" transform="translate(-267.521, -695.555)">
    <g>
      <path d="M323.234,806.991 L322.996,801.658 Q329.308,803.883 332.592,797.873 Q334.188,794.951 333.614,792.22 Q333.041,789.489 330.543,788.124 Q327.125,786.257 321.502,788.54 L317.634,790.13 Q312.926,792.026 310.658,792.286 Q308.389,792.546 306.338,791.426 Q302.473,789.314 301.638,784.849 Q300.803,780.384 303.378,775.67 Q305.425,771.923 309.045,769.555 L311.432,772.634 L312.488,774.007 Q313.43,775.195 313.044,775.902 Q312.877,776.208 312.461,776.409 Q311.454,775.339 310.724,774.94 Q309.215,774.116 307.294,775.224 Q305.373,776.332 304.034,778.783 Q300.995,784.345 305.591,786.856 Q307.241,787.757 309.437,787.35 Q311.633,786.943 316.952,784.769 L320.086,783.513 Q326.003,781.084 329.892,783.209 Q334.181,785.552 335.057,790.728 Q335.932,795.903 332.971,801.324 Q329.366,807.923 323.234,806.991 z" fill="#62F0E8"/>
      <path d="M353.043,767.502 Q353.05,773.347 351.597,777.958 Q350.145,782.569 347.851,783.966 Q344.709,785.879 341.622,780.811 Q337.375,773.838 338.842,765.948 Q340.31,758.058 346.571,754.244 Q348.956,752.791 350.994,752.367 Q351.131,752.85 351.164,752.956 L351.629,754.339 Q352.122,755.768 352.225,755.989 L356.932,767.02 L357.619,768.614 Q358.648,770.974 359.095,771.708 Q359.696,772.695 360.269,772.345 Q362.196,771.172 361.588,765.631 Q362.431,765.62 362.654,765.987 Q363.143,766.79 362.652,770.423 Q361.98,775.36 359.686,776.757 Q358.012,777.777 356.643,775.529 Q356.224,774.841 355.644,773.528 L354.756,771.553 L353.824,769.353 z M348.804,757.6 Q346.004,757.702 343.871,759.001 Q340.66,760.957 340.87,766.206 Q341.08,771.455 344.615,777.258 Q346.431,780.24 348.197,779.164 Q350.238,777.921 351.228,773.041 Q352.571,766.469 349.946,760.301 z" fill="#62F0E8"/>
      <path d="M376.562,760.64 Q377.423,760.721 377.629,761.275 Q378.302,763.087 376.586,766.761 Q374.871,770.435 373.033,771.117 Q370.944,771.893 369.822,768.872 Q369.139,767.034 368.655,765.037 L368.1,762.693 L363.532,744.451 Q361.466,736.108 364.069,729.04 Q366.672,721.971 372.664,719.746 Q374.124,719.204 375.225,719.082 L373.006,724.06 Q371.673,724.097 370.087,724.686 Q366.31,726.088 365.421,729.44 Q364.532,732.793 366.183,739.399 L371.675,761.366 Q372.305,763.911 372.698,764.968 Q373.539,767.234 374.32,766.944 Q375.251,766.598 375.954,764.633 Q376.656,762.667 376.562,760.64 z" fill="#62F0E8"/>
      <path d="M393.374,758.732 Q398.054,746.735 397.042,742.753 Q396.664,741.269 394.936,740.794 L397.343,736.636 Q399.487,737.116 400.024,739.224 Q400.685,741.826 397.627,750.612 Q396.944,752.504 396.687,753.345 L396.321,754.63 L395.607,756.834 Q395.015,758.648 394.418,760.878 L391.694,765.311 Q388.573,757.182 384.601,750.932 Q380.629,744.682 378.859,745.132 Q376.881,745.635 377.099,749.764 Q376.279,749.695 376.126,749.097 Q375.623,747.118 376.746,744.395 Q377.868,741.671 379.358,741.209 Q384.933,739.486 393.374,758.732 z" fill="#62F0E8"/>
      <path d="M422.102,748.213 Q419.769,753.571 416.592,757.216 Q413.416,760.86 410.755,761.222 Q407.11,761.719 406.309,755.838 Q405.207,747.749 409.71,741.105 Q414.212,734.461 421.477,733.472 Q424.244,733.095 426.281,733.523 Q426.213,734.02 426.201,734.13 L426.074,735.584 Q425.954,737.091 425.96,737.334 L425.858,749.327 L425.851,751.063 Q425.849,753.638 425.965,754.489 Q426.121,755.634 426.786,755.543 Q429.021,755.239 430.682,749.917 Q431.458,750.245 431.516,750.671 Q431.643,751.602 429.738,754.734 Q427.147,758.99 424.486,759.353 Q422.543,759.617 422.188,757.009 Q422.08,756.211 422.074,754.775 L422.05,752.61 L422.077,750.221 z M422.18,737.442 Q419.574,736.414 417.099,736.751 Q413.373,737.259 411.465,742.153 Q409.557,747.048 410.474,753.78 Q410.945,757.239 412.994,756.96 Q415.362,756.638 418.222,752.562 Q422.083,747.077 422.145,740.374 z" fill="#62F0E8"/>
      <path d="M451.958,735.661 Q449.977,734.362 447.052,734.467 Q443.375,734.599 441.005,739.307 Q438.634,744.014 438.876,750.75 Q439.002,754.239 441.068,754.165 Q443.43,754.08 446.707,750.308 Q451.249,745.065 451.716,738.626 z M456.428,732.168 Q456.311,732.656 456.288,732.765 L456.044,734.198 Q455.751,735.767 455.73,735.929 L455.01,745.79 Q454.83,748.269 454.758,754.479 Q454.661,762.249 453.695,766.019 Q452.729,769.789 450.043,772.815 Q443.897,779.781 436.678,780.04 Q433.189,780.166 430.796,777.887 Q428.403,775.608 428.276,772.065 Q428.016,764.846 436.593,757.497 Q434.661,756.088 434.527,752.358 Q434.236,744.253 439.361,738.076 Q444.487,731.899 451.76,731.637 Q454.846,731.526 456.428,732.168 z M451.138,746.467 Q444.289,757.785 438.411,757.996 Q438.17,758.005 437.551,757.973 Q431.55,764.477 431.727,769.388 Q431.847,772.743 434.304,774.926 Q436.761,777.108 440.276,776.982 Q445.698,776.787 448.424,771.905 Q450.493,768.149 450.854,754.27 Q450.988,749.025 451.138,746.467 z" fill="#62F0E8"/>
      <path d="M477.308,749.092 Q477.961,749.575 477.936,750.193 Q477.903,751.024 476.105,752.968 Q471.304,758.098 466.823,757.919 Q464.086,757.81 462.402,755.566 Q460.717,753.322 460.852,749.941 Q461.097,743.822 465.976,737.741 Q470.855,731.66 475.39,731.841 Q478.663,731.972 478.523,735.487 Q478.366,739.432 474.392,743.036 Q470.418,746.64 464.858,747.897 Q465.137,754.385 469.698,754.567 Q474.207,754.747 477.308,749.092 z M465.096,744.627 Q465.864,744.927 466.508,744.952 Q469.835,745.085 472.412,743.145 Q474.989,741.206 475.098,738.468 Q475.224,735.329 472.03,735.201 Q469.723,735.109 467.748,737.785 Q465.773,740.461 465.096,744.627 z" fill="#62F0E8"/>
      <path d="M507.72,740.12 L502.781,743.255 Q502.274,740.22 502.808,737.588 Q504.134,731.061 510.605,728.21 Q516.026,725.803 527.501,728.134 Q529.448,728.53 530.906,728.908 Q534.932,730 535.037,730.021 L536.88,730.395 Q534.175,733.189 532.186,742.979 L531.935,744.353 L531.425,747.401 Q530.319,752.849 530.501,758.833 Q530.578,761.15 530.95,761.883 Q531.322,762.617 532.559,762.868 Q533.901,763.141 535.788,762.619 Q535.881,763.104 535.823,763.394 Q535.689,764.052 534.566,764.317 L533.206,764.671 L526.16,766.172 Q525.354,759.075 526.388,751.694 L524.104,752.683 L515.261,750.887 Q511.589,756.554 506.844,758.33 L512.238,759.7 L508.786,762.123 L498.36,759.622 L502.502,757.174 L505.102,757.867 Q507.159,756.914 508.906,754.789 Q510.653,752.664 514.543,746.329 L515.776,744.305 Q519.539,738.191 522.335,735.621 Q525.132,733.051 529.291,731.868 Q525.314,730.266 520.735,729.336 Q509.076,726.968 507.477,734.837 Q506.932,737.521 507.72,740.12 z M526.629,750.236 Q527.191,745.582 527.768,742.74 Q528.062,741.292 528.302,740.382 L529.132,737.372 Q529.979,734.282 530.684,732.699 Q524.884,734.81 519.591,743.874 Q518.071,746.498 517.828,746.887 L516.918,748.264 z" fill="#62F0E8"/>
      <path d="M558.479,764.748 Q553.954,768.062 549.203,769.769 Q544.453,771.476 542.192,770.622 Q539.705,769.682 540.958,766.366 Q541.423,765.135 542.813,762.445 L546.832,754.547 Q546.923,754.38 547.508,753.137 L548.276,751.561 Q548.627,750.861 548.845,750.283 Q549.396,748.826 548.567,748.513 Q546.657,747.791 542.823,751.252 Q542.488,750.694 542.65,750.267 Q543.238,748.71 546.992,747.171 Q550.746,745.633 552.379,746.25 Q554.464,747.038 553.382,749.902 Q553.125,750.58 552.683,751.447 L551.726,753.296 L550.702,755.32 L547.183,762.201 Q546.289,763.959 545.577,765.843 Q544.922,767.577 546.203,768.061 Q549.042,769.134 554.387,765.814 Q559.733,762.494 562.114,758.169 L565.218,752.538 L569.81,752.695 Q568.005,755.343 566.79,757.496 L561.314,767.427 Q560.828,768.334 560.505,768.959 L559.807,770.274 Q559.172,771.498 558.973,772.026 Q558.565,773.106 559.168,773.334 Q561.303,774.141 565.299,770.253 Q565.825,770.912 565.673,771.314 Q565.341,772.193 562.149,774.03 Q557.842,776.536 555.33,775.587 Q553.496,774.894 554.427,772.432 Q554.721,771.653 555.391,770.413 L556.427,768.508 Q557.27,766.961 557.564,766.411 z" fill="#62F0E8"/>
      <path d="M598.662,775.529 L586.297,765.837 L577.918,774.351 Q575.672,776.651 574.727,777.856 Q572.855,780.244 574.483,781.52 Q576.237,782.895 580.371,781.495 Q580.374,782.145 580.125,782.462 Q579.197,783.646 575.823,783.662 Q572.449,783.679 570.948,782.503 Q567.947,780.15 570.962,776.304 Q572.072,774.887 574.917,771.999 L583.275,763.468 L578.815,759.972 L583.21,759.459 L585.472,761.232 L588.931,757.733 L592.849,759.132 L588.494,763.601 L604.114,775.844 Q606.003,776.437 607.123,777.315 Q611.985,781.126 607.048,787.424 Q603.072,792.497 595.665,794.284 Q588.259,796.071 584.264,792.94 Q579.445,789.163 584.382,782.864 Q589.27,776.629 598.662,775.529 z M588.614,792.528 Q591.045,794.433 594.803,793.011 Q598.562,791.59 601.726,787.553 Q606.895,780.958 602.774,777.728 Q600.364,775.839 596.608,777.279 Q592.851,778.72 589.704,782.736 Q584.535,789.33 588.614,792.528 z" fill="#62F0E8"/>
      <path d="M596.967,803.584 L600.973,806.21 Q599.474,808.877 600.424,811.9 Q601.583,815.589 605.145,814.47 Q607.118,813.851 609.591,809.358 L610.643,807.422 Q612.994,803.165 615.069,802.513 Q618.041,801.58 620.874,803.519 Q623.707,805.458 624.89,809.224 Q625.534,811.273 625.53,813.949 L621.72,811.768 Q622.569,809.362 621.82,806.979 Q620.943,804.187 618.611,804.919 Q616.946,805.442 614.692,809.557 L613.5,811.676 Q610.922,816.371 608.667,817.08 Q605.439,818.094 601.992,815.771 Q598.546,813.447 597.274,809.399 Q596.372,806.53 596.967,803.584 z" fill="#62F0E8"/>
    </g>
  </g>
</svg>
